<svg xmlns="http://www.w3.org/2000/svg" width="160" height="160" viewBox="0 0 160 160" fill="none">
  <rect width="160" height="160" rx="24" fill="#F5F6FA"/>
  <path d="M36 49C36 34.6406 47.6406 23 62 23H98C112.359 23 124 34.6406 124 49C124 63.3594 112.359 75 98 75H72C64.268 75 58 81.268 58 89C58 96.732 64.268 103 72 103H124V111C124 125.359 112.359 137 98 137H62C47.6406 137 36 125.359 36 111V103H88C95.732 103 102 96.732 102 89C102 81.268 95.732 75 88 75H62C47.6406 75 36 63.3594 36 49Z" fill="#2A2D53"/>
  <circle cx="111" cy="38" r="12" fill="#F7A600"/>
  <path d="M36 49C36 34.6406 47.6406 23 62 23H91L75 75H62C47.6406 75 36 63.3594 36 49Z" fill="#F7A600"/>
</svg>
